<svg width="190" height="68" viewBox="0 0 190 68" fill="none" xmlns="http://www.w3.org/2000/svg">
<path fill-rule="evenodd" clip-rule="evenodd" d="M92.6678 0.206604C89.7274 0.849228 87.1101 1.78614 86.8378 2.29347C86.6774 2.59218 86.62 3.48768 86.7101 4.28361C87.1555 8.22565 83.2853 10.3761 79.9909 8.01703C79.0341 7.33205 78.4248 7.10035 77.9639 7.24638C76.9976 7.55205 72.5372 12.1095 72.5372 12.791C72.5372 13.1112 72.9296 13.8383 73.409 14.4066C74.1371 15.2692 74.2808 15.7367 74.2808 17.2423C74.2808 18.5983 74.1235 19.2211 73.6467 19.7543C72.7271 20.7829 71.2133 21.3244 69.2576 21.3244C68.2701 21.3244 67.4046 21.4919 67.2173 21.7195C66.5756 22.4993 65.5238 26.6408 65.622 28C65.7156 29.2928 65.8148 29.4227 67.3041 30.206C68.1747 30.6637 69.1368 31.4486 69.4424 31.9503C70.6094 33.8664 69.7839 36.5817 67.7166 37.6261C65.3168 38.8386 65.0482 39.9216 66.1952 43.7615C67.0198 46.5226 67.4509 46.8858 69.8425 46.8349C71.9954 46.7894 73.2178 47.3865 73.9799 48.856C74.8412 50.5168 74.3895 53.0592 73.0336 54.181C72.7607 54.407 72.5372 54.8751 72.5372 55.2216C72.5372 56.1408 77.2135 60.8364 78.129 60.8364C78.5285 60.8364 79.5303 60.4097 80.3551 59.8881C82.0952 58.7878 83.3811 58.6929 84.8061 59.5594C86.2054 60.4097 86.803 61.7189 86.803 63.9326C86.803 65.3069 86.9485 65.9265 87.3577 66.2932C88.0444 66.9086 93.5412 68.2239 94.3527 67.9672C94.6793 67.8638 95.2895 67.1172 95.7093 66.3077C96.7237 64.3504 97.8282 63.576 99.6051 63.576C101.445 63.576 102.462 64.2736 103.447 66.2103C103.97 67.2411 104.503 67.8446 104.998 67.9685C105.842 68.1796 110.666 67.0069 111.768 66.3222C112.396 65.9325 112.481 65.6183 112.481 63.6983C112.481 61.8182 112.594 61.3842 113.294 60.5538C114.038 59.6725 115.686 58.9458 116.951 58.9417C117.23 58.9408 118.086 59.364 118.853 59.8824C120.972 61.314 121.472 61.1819 124.121 58.4887C126.728 55.8386 126.916 55.1947 125.638 53.318C125.074 52.4911 124.845 51.7319 124.845 50.6907C124.845 48.0478 126.864 46.4689 129.802 46.815C131.057 46.9629 131.439 46.8874 131.856 46.4091C132.523 45.6435 133.722 41.6215 133.722 40.1473C133.722 39.1715 133.566 38.9145 132.696 38.4577C132.132 38.1619 131.133 37.4026 130.477 36.7714C129.454 35.7873 129.284 35.4254 129.285 34.2426C129.286 32.3688 130.183 31.02 132.038 30.1001C133.419 29.4152 133.573 29.229 133.665 28.1299C133.793 26.5889 132.317 21.777 131.635 21.5162C131.359 21.4107 130.354 21.3244 129.4 21.3244C128.447 21.3244 127.248 21.1085 126.737 20.8448C124.679 19.784 124.219 16.7309 125.771 14.4467C126.309 13.6562 126.621 12.8514 126.528 12.4964C126.328 11.7324 121.579 7.09971 120.998 7.1013C120.76 7.10224 119.923 7.52834 119.139 8.04832C115.777 10.2765 112.298 8.47979 112.406 4.57126C112.487 1.64105 112.525 1.67519 107.921 0.439251C104.892 -0.374065 104.324 -0.176189 103.318 2.04281C101.774 5.44906 97.5597 5.43041 95.8215 2.00962C94.8806 0.158873 94.3293 -0.156591 92.6678 0.206604ZM105.455 14.4761C112.21 16.4271 117.526 21.8447 119.31 28.5946C120.039 31.3519 120.162 35.5067 119.596 38.2355C118.05 45.6932 111.662 52.1839 104.348 53.729C101.468 54.3375 97.0043 54.3188 94.4317 53.6879C90.0403 52.6109 85.1649 49.1389 82.5743 45.2437C78.8797 39.6892 78.0942 32.8508 80.4537 26.7805C81.686 23.6104 82.9747 21.7274 85.6325 19.2132C88.8626 16.1578 92.592 14.3424 97.106 13.6287C98.9121 13.3429 102.95 13.7529 105.455 14.4761ZM138.16 32.0716V45.3477H145.293H152.426V43.135V40.9223H147.67H142.915V37.7614V34.6004H147.512H152.109V32.2297V29.859H147.512H142.915V26.698V23.537H147.67H152.426V21.1663V18.7956H145.293H138.16V32.0716ZM157.181 32.0716V45.3477H163.68H170.179V43.135V40.9223H166.057H161.936V29.859V18.7956H159.559H157.181V32.0716ZM173.032 32.0397V45.3477H175.409H177.787V40.2901V35.2326H180.266C183.528 35.2326 185.592 34.59 187.386 33.0155C190.842 29.9822 190.877 24.0766 187.456 21.0746C185.447 19.3108 184.348 19.0463 178.342 18.8794L173.032 18.7317V32.0397ZM10.6147 19.6649C10.5367 19.7954 9.67887 21.8222 8.70784 24.1692C7.73714 26.5162 5.38074 32.1759 3.47134 36.7464L0 45.0562L2.57292 44.9649L5.14615 44.8735L6.42659 41.6288L7.70702 38.3841L12.5853 38.4678L17.4632 38.5516L18.7199 41.7916L19.9766 45.0316H22.4807C23.8578 45.0316 24.9845 44.9516 24.9845 44.8539C24.9845 44.7559 24.01 42.3735 22.8189 39.5593C21.6279 36.7448 19.2408 31.0642 17.5146 26.9351L14.3761 19.4278H12.566C11.5705 19.4278 10.6924 19.5343 10.6147 19.6649ZM27.8376 32.1959V45.0316H32.2093C39.113 45.0316 42.1063 43.9268 43.66 40.8057C45.2809 37.5499 44.4021 33.6793 41.6485 31.9439L40.2359 31.0535L41.147 30.2892C42.4173 29.2233 43.1943 27.064 42.921 25.3593C42.5536 23.0686 41.3898 21.4871 39.3299 20.4791C37.6161 19.6405 37.2163 19.5801 32.6722 19.4736L27.8376 19.3601V32.1959ZM45.9077 21.6405V23.8531H48.2853H50.6629V34.4424V45.0316H53.0406H55.4182V34.4424V23.8531H57.7958H60.1735V21.6405V19.4278H53.0406H45.9077V21.6405ZM183.712 24.1541C185.562 25.279 185.755 28.287 184.067 29.7034C183.229 30.4064 182.841 30.4912 180.457 30.4912H177.787V27.0141V23.537L180.244 23.5383C182.118 23.5392 182.941 23.6853 183.712 24.1541ZM36.5883 24.1816C37.7394 24.6181 38.277 25.377 38.2891 26.5839C38.3081 28.4378 36.6076 29.5135 33.6232 29.5353L32.5929 29.5429V26.698V23.8531H34.1574C35.0178 23.8531 36.1118 24.0011 36.5883 24.1816ZM14.1764 30.2961C14.9014 32.1883 15.4372 33.7944 15.3665 33.8648C15.2955 33.9353 13.9529 33.9518 12.3824 33.9015L9.52734 33.8102L10.9742 30.0913C11.7699 28.0458 12.5193 26.4812 12.6392 26.6142C12.7593 26.7473 13.4511 28.4043 14.1764 30.2961ZM38.2533 34.4186C39.8057 35.219 40.3751 37.5543 39.3673 38.9888C38.6163 40.0578 37.0217 40.6062 34.6637 40.6062H32.5929V37.2872V33.9682H34.9864C36.4377 33.9682 37.7235 34.1455 38.2533 34.4186Z" fill="#36399E"/>
<path d="M138.16 45.3476V32.0716V18.7955H145.293H152.426V21.1663V23.537H147.67H142.915V26.6979V29.8589H147.512H152.109V32.2296V34.6004H147.512H142.915V37.7613V40.9223H147.67H152.426V43.135V45.3476H145.293H138.16Z" fill="#F12E35"/>
<path d="M157.181 45.3476V32.0716V18.7955H159.559H161.936V29.8589V40.9223H166.057H170.179V43.135V45.3476H163.68H157.181Z" fill="#F12E35"/>
<path fill-rule="evenodd" clip-rule="evenodd" d="M173.032 32.0397V45.3476H175.409H177.787V40.2901V35.2325H180.266C183.528 35.2325 185.592 34.5899 187.386 33.0154C190.842 29.9822 190.877 24.0766 187.456 21.0746C185.447 19.3108 184.348 19.0462 178.342 18.8793L173.032 18.7317V32.0397ZM184.067 29.7034C185.755 28.287 185.562 25.279 183.712 24.154C182.941 23.6852 182.118 23.5392 180.244 23.5382L177.787 23.537V27.014V30.4911H180.457C182.841 30.4911 183.229 30.4064 184.067 29.7034Z" fill="#F12E35"/>
<path d="M89.3391 46.6121V33.3361V20.0601H91.8753H94.4114V25.4337V30.8073H99.3252H104.239V25.4337V20.0601H106.617H108.994V33.3361V46.6121H106.617H104.239V41.0805V35.5488H99.3252H94.4114V41.0805V46.6121H91.8753H89.3391Z" fill="#F12E35"/>
</svg>
