<svg width="140" height="140" viewBox="0 0 140 140" fill="none" xmlns="http://www.w3.org/2000/svg">
<path d="M70 87.5C79.665 87.5 87.5 79.665 87.5 70C87.5 60.335 79.665 52.5 70 52.5C60.335 52.5 52.5 60.335 52.5 70C52.5 79.665 60.335 87.5 70 87.5Z" stroke="#FBFBFB" stroke-width="8" stroke-linecap="round" stroke-linejoin="round"/>
<path d="M113.167 87.5C112.39 89.2594 112.158 91.2111 112.502 93.1034C112.845 94.9957 113.747 96.7418 115.092 98.1166L115.442 98.4666C116.526 99.5502 117.387 100.837 117.974 102.253C118.561 103.669 118.863 105.188 118.863 106.721C118.863 108.254 118.561 109.772 117.974 111.188C117.387 112.605 116.526 113.891 115.442 114.975C114.358 116.06 113.071 116.92 111.655 117.507C110.239 118.094 108.721 118.397 107.187 118.397C105.654 118.397 104.136 118.094 102.72 117.507C101.303 116.92 100.017 116.06 98.9332 114.975L98.5832 114.625C97.2084 113.28 95.4623 112.378 93.57 112.035C91.6777 111.692 89.726 111.923 87.9666 112.7C86.2413 113.439 84.7698 114.667 83.7334 116.232C82.6969 117.797 82.1407 119.631 82.1332 121.508V122.5C82.1332 125.594 80.9041 128.562 78.7162 130.75C76.5282 132.937 73.5608 134.167 70.4666 134.167C67.3724 134.167 64.4049 132.937 62.217 130.75C60.0291 128.562 58.7999 125.594 58.7999 122.5V121.975C58.7548 120.044 58.1298 118.172 57.0062 116.601C55.8827 115.03 54.3125 113.833 52.4999 113.167C50.7405 112.39 48.7888 112.159 46.8965 112.502C45.0042 112.845 43.258 113.747 41.8832 115.092L41.5332 115.442C40.4497 116.526 39.163 117.387 37.7467 117.974C36.3304 118.561 34.8123 118.863 33.2791 118.863C31.7459 118.863 30.2278 118.561 28.8114 117.974C27.3951 117.387 26.1084 116.526 25.0249 115.442C23.9402 114.358 23.0797 113.071 22.4926 111.655C21.9054 110.239 21.6032 108.721 21.6032 107.187C21.6032 105.654 21.9054 104.136 22.4926 102.72C23.0797 101.304 23.9402 100.017 25.0249 98.9333L25.3749 98.5833C26.7197 97.2085 27.6218 95.4624 27.9649 93.5701C28.3081 91.6778 28.0764 89.7261 27.2999 87.9666C26.5605 86.2413 25.3327 84.7699 23.7676 83.7334C22.2026 82.697 20.3687 82.1408 18.4916 82.1333H17.4999C14.4057 82.1333 11.4383 80.9041 9.25034 78.7162C7.06242 76.5283 5.83325 73.5608 5.83325 70.4666C5.83325 67.3725 7.06242 64.405 9.25034 62.2171C11.4383 60.0291 14.4057 58.8 17.4999 58.8H18.0249C19.9557 58.7548 21.8283 58.1298 23.3992 57.0063C24.97 55.8827 26.1666 54.3126 26.8333 52.5C27.6098 50.7406 27.8414 48.7888 27.4983 46.8965C27.1552 45.0042 26.253 43.2581 24.9083 41.8833L24.5583 41.5333C23.4735 40.4498 22.613 39.1631 22.0259 37.7468C21.4388 36.3305 21.1366 34.8123 21.1366 33.2791C21.1366 31.746 21.4388 30.2278 22.0259 28.8115C22.613 27.3952 23.4735 26.1085 24.5583 25.025C25.6418 23.9403 26.9285 23.0797 28.3448 22.4926C29.7611 21.9055 31.2792 21.6033 32.8124 21.6033C34.3456 21.6033 35.8637 21.9055 37.2801 22.4926C38.6964 23.0797 39.9831 23.9403 41.0666 25.025L41.4166 25.375C42.7914 26.7198 44.5375 27.6219 46.4298 27.965C48.3221 28.3081 50.2738 28.0765 52.0332 27.3H52.4999C54.2252 26.5605 55.6967 25.3327 56.7331 23.7677C57.7696 22.2027 58.3258 20.3687 58.3332 18.4916V17.5C58.3332 14.4058 59.5624 11.4383 61.7503 9.2504C63.9383 7.06248 66.9057 5.83331 69.9999 5.83331C73.0941 5.83331 76.0616 7.06248 78.2495 9.2504C80.4374 11.4383 81.6666 14.4058 81.6666 17.5V18.025C81.6741 19.9021 82.2303 21.736 83.2667 23.301C84.3031 24.8661 85.7746 26.0939 87.4999 26.8333C89.2593 27.6098 91.211 27.8414 93.1033 27.4983C94.9957 27.1552 96.7418 26.2531 98.1166 24.9083L98.4666 24.5583C99.5501 23.4736 100.837 22.6131 102.253 22.0259C103.669 21.4388 105.188 21.1366 106.721 21.1366C108.254 21.1366 109.772 21.4388 111.188 22.0259C112.605 22.6131 113.891 23.4736 114.975 24.5583C116.06 25.6418 116.92 26.9285 117.507 28.3448C118.094 29.7612 118.397 31.2793 118.397 32.8125C118.397 34.3457 118.094 35.8638 117.507 37.2801C116.92 38.6964 116.06 39.9831 114.975 41.0666L114.625 41.4166C113.28 42.7914 112.378 44.5376 112.035 46.4299C111.692 48.3222 111.923 50.2739 112.7 52.0333V52.5C113.439 54.2253 114.667 55.6967 116.232 56.7332C117.797 57.7696 119.631 58.3258 121.508 58.3333H122.5C125.594 58.3333 128.562 59.5625 130.749 61.7504C132.937 63.9383 134.167 66.9058 134.167 70C134.167 73.0942 132.937 76.0616 130.749 78.2496C128.562 80.4375 125.594 81.6666 122.5 81.6666H121.975C120.098 81.6741 118.264 82.2303 116.699 83.2668C115.134 84.3032 113.906 85.7747 113.167 87.5V87.5Z" stroke="#FBFBFB" stroke-width="8" stroke-linecap="round" stroke-linejoin="round"/>
</svg>
