<svg width="140" height="140" viewBox="0 0 140 140" fill="none" xmlns="http://www.w3.org/2000/svg">
<path d="M85.7499 36.75C84.6811 37.8404 84.0824 39.3065 84.0824 40.8334C84.0824 42.3603 84.6811 43.8263 85.7499 44.9167L95.0832 54.25C96.1736 55.3189 97.6397 55.9175 99.1665 55.9175C100.693 55.9175 102.159 55.3189 103.25 54.25L125.242 32.2584C128.175 38.7403 129.063 45.9622 127.788 52.9617C126.512 59.9612 123.134 66.4058 118.103 71.4367C113.072 76.4675 106.628 79.8457 99.6282 81.121C92.6287 82.3964 85.4068 81.5082 78.9249 78.575L38.6166 118.883C36.2959 121.204 33.1484 122.508 29.8666 122.508C26.5847 122.508 23.4372 121.204 21.1166 118.883C18.7959 116.563 17.4922 113.415 17.4922 110.133C17.4922 106.851 18.7959 103.704 21.1166 101.383L61.4249 61.075C58.4917 54.5931 57.6036 47.3712 58.8789 40.3717C60.1542 33.3722 63.5324 26.9276 68.5633 21.8967C73.5941 16.8659 80.0387 13.4877 87.0382 12.2124C94.0377 10.937 101.26 11.8252 107.742 14.7584L85.8082 36.6917L85.7499 36.75Z" stroke="#FBFBFB" stroke-width="8" stroke-linecap="round" stroke-linejoin="round"/>
</svg>
